# xmcd CD database file
#
# Track frame offsets:
#	150
#	22612
#	33925
#	52925
#	73650
#	89187
#	114037
#	133912
#	143587
#	164450
#	186487
#	204925
#
# Disc length: 3008 seconds
#
# Revision: 1
# Processed by: cddbd v1.4PL0 Copyright (c) Steve Scherf et al.
# Submitted via: CDex 1.50
#
DISCID=9f0bbe0c
DTITLE=Various Artist - Hi Fi Latin
DYEAR=1999
DGENRE=Jazz
TTITLE0=Diane Hubka/Favela
TTITLE1=Quatro Ventos/Menina Estas a Janela
TTITLE2=El Periquin/A Mi Madre
TTITLE3=Orquesta Hasta Domingo/Ay, Mi Amor
TTITLE4=Quatro Ventos/Tardes de Bolonha
TTITLE5=Jose Lopretti/Florita
TTITLE6=Sandy Cressman/Felicidade
TTITLE7=Gustavo Toker ,Juan Pablo Dobal/Mas Que El Primer Dia
TTITLE8=Sandy Cressman/Poeque Somos Iguais
TTITLE9=Fred Berkemeier's/Caribbean Vibes
TTITLE10=Bacan/Derrotero
TTITLE11=Orquesta hasta Domingo/Ga Met Me Mee
EXTD=YEAR: 1999
EXTT0=
EXTT1=
EXTT2=
EXTT3=
EXTT4=
EXTT5=
EXTT6=
EXTT7=
EXTT8=
EXTT9=
EXTT10=
EXTT11=
PLAYORDER=
